:SAMPLES-PER-SECOND 30
:FULLY-SPECIFIED
:DEGREES
517
root  -41.7918 38.4331 -27.8521 39.0147 -86.7017 3.50537
RightUpLeg  -72.7523 -20.1999 28.3332
RightLeg  27.2713 7.12346 3.74305
RightFoot  0.574135 1.18115 -11.2315
RightToes  0.000482159 0.542163 -0.142577
Spine  68.3211 -5.96699 7.64599
Spine1  9.23906 0.994058 -7.21388
HEad  -27.1358 -3.12992 1.62622
LeftShoulder1  3.1562 -19.7133 -5.80592
LeftArm  -99.7504 -66.7255 48.6779
LeftForeArm  6.79739 -13.3904 -0.315124
LeftHand  -0.25398 0.0180481 5.50724
RightShoulder  2.24338 16.0631 3.45791
RightArm  -71.9015 49.3578 -25.2242
RightForeArm  -30.9611 9.03286 1.90986
RightHand  -0.728141 5.04832 -8.41182
LeftUpLeg  -75.0106 27.1166 -30.4092
LeftLeg  29.1043 -9.1812 -5.15808
LeftFoot  -1.59441 -0.435516 5.21755
LeftToes  1.06247e-005 4.65855e-005 -8.18504e-006
518
root  -41.8674 38.4139 -27.7965 38.6474 -86.9366 3.81937
RightUpLeg  -72.4214 -19.6338 27.2199
RightLeg  27.5534 6.31051 3.33148
RightFoot  0.24666 1.10863 -10.8643
RightToes  0.000482159 0.542163 -0.142577
Spine  68.2721 -5.91473 7.67814
Spine1  9.4017 1.04825 -7.17637
HEad  -27.3394 -3.30144 1.93057
LeftShoulder1  3.20463 -19.6615 -6.07461
LeftArm  -101.821 -67.1903 49.206
LeftForeArm  7.43265 -13.7875 -0.183745
LeftHand  -0.25398 0.0180481 5.50724
RightShoulder  2.13361 15.9873 2.87166
RightArm  -71.452 49.6435 -25.1131
RightForeArm  -34.9391 9.35324 2.30251
RightHand  -1.2566 5.87789 -13.3091
LeftUpLeg  -74.8648 27.0289 -30.0512
LeftLeg  29.5369 -8.72177 -4.9743
LeftFoot  -1.9234 -0.411495 5.13358
LeftToes  1.06247e-005 4.65855e-005 -8.18504e-006
519
root  -41.9202 38.386 -27.7379 35.035 -87.3471 7.31458
RightUpLeg  -72.0776 -18.9707 25.8208
RightLeg  27.8966 5.43296 2.87968
RightFoot  -0.0936316 1.05249 -10.6529
RightToes  0.000482159 0.542163 -0.142577
Spine  68.1872 -5.81866 7.63923
Spine1  9.72865 1.14074 -7.2444
HEad  -27.3856 -3.73959 2.15216
LeftShoulder1  3.33519 -19.7318 -6.65564
LeftArm  -102.748 -67.594 50.0107
LeftForeArm  8.12911 -14.4201 -0.564747
LeftHand  -0.25398 0.0180481 5.50724
RightShoulder  2.11569 15.7287 2.93572
RightArm  -72.7349 50.1684 -25.3249
RightForeArm  -36.0385 9.21266 2.06985
RightHand  -1.73441 7.70468 -15.7326
LeftUpLeg  -74.6267 26.9017 -29.7687
LeftLeg  29.9667 -8.14084 -4.70631
LeftFoot  -2.27363 -0.393361 5.13063
LeftToes  1.06247e-005 4.65855e-005 -8.18504e-006
520
root  -41.9382 38.3622 -27.6623 29.7526 -87.7403 12.3541
RightUpLeg  -71.7867 -18.5413 24.6511
RightLeg  28.2402 4.81039 2.56147
RightFoot  -0.210761 1.03577 -10.6027
RightToes  0.000482159 0.542163 -0.142577
Spine  68.0534 -5.74093 7.69733
Spine1  10.2969 1.2731 -7.19561
HEad  -27.1474 -4.45389 2.14792
LeftShoulder1  3.48552 -19.9007 -7.25695
LeftArm  -103.513 -67.9594 51.7106
LeftForeArm  8.8124 -14.6095 -0.943513
LeftHand  -0.25398 0.0180481 5.50724
RightShoulder  2.18072 15.3803 3.55557
RightArm  -75.3311 50.7119 -26.1604
RightForeArm  -35.2054 9.38301 1.58849
RightHand  -2.33964 10.0054 -17.9538
LeftUpLeg  -74.1993 26.6771 -29.3306
LeftLeg  30.3181 -7.4165 -4.32288
LeftFoot  -2.59272 -0.376898 5.12844
LeftToes  1.06247e-005 4.65855e-005 -8.18504e-006
521
root  -41.9147 38.3512 -27.5641 26.5288 -87.9566 15.2482
RightUpLeg  -71.5595 -18.5164 24.0704
RightLeg  28.4329 4.6052 2.46258
RightFoot  -0.14462 1.03418 -10.5195
RightToes  0.000482159 0.542163 -0.142577
Spine  67.9107 -5.70333 7.89311
Spine1  10.8496 1.3955 -6.84442
HEad  -26.5963 -4.99621 1.96229
LeftShoulder1  3.58979 -19.9302 -7.73268
LeftArm  -105.543 -68.4679 54.1917
LeftForeArm  8.72884 -13.7945 -0.774448
LeftHand  -0.25398 0.0180481 5.50724
RightShoulder  2.20751 15.1134 3.90566
RightArm  -77.0318 51.225 -27.3951
RightForeArm  -34.3162 9.27068 1.35219
RightHand  -3.1612 12.0941 -21.2269
LeftUpLeg  -73.6618 26.3488 -28.6998
LeftLeg  30.5513 -6.6544 -3.88367
LeftFoot  -2.80271 -0.366362 5.13115
LeftToes  1.06247e-005 4.65855e-005 -8.18504e-006
522
root  -41.8477 38.3588 -27.4459 26.7642 -88.0819 14.6077
RightUpLeg  -71.2395 -18.7677 23.9504
RightLeg  28.294 4.73795 2.5251
RightFoot  -0.000431939 1.04181 -10.4519
RightToes  0.000482159 0.542163 -0.142577
Spine  67.7173 -5.66072 8.11947
Spine1  11.1906 1.49374 -6.35214
HEad  -25.5463 -5.17319 1.74874
LeftShoulder1  3.64899 -19.8576 -8.06843
LeftArm  -107.973 -69.1189 56.8574
LeftForeArm  8.21554 -12.1435 -0.352804
LeftHand  -0.25398 0.0180481 5.50724
RightShoulder  2.1477 15.0255 3.60607
RightArm  -76.5826 51.9016 -28.7241
RightForeArm  -33.8223 7.7609 1.41741
RightHand  -4.13814 13.7472 -25.1741
LeftUpLeg  -73.1065 26.1069 -28.1567
LeftLeg  30.6049 -6.07608 -3.52592
LeftFoot  -2.91174 -0.370127 5.25776
LeftToes  1.06247e-005 4.65855e-005 -8.18504e-006
523
root  -41.7386 38.4035 -27.3129 27.384 -88.2718 13.3976
RightUpLeg  -70.5887 -19.1631 23.9391
RightLeg  27.6987 5.10239 2.66808
RightFoot  0.346916 1.08625 -10.5474
RightToes  0.000482159 0.542163 -0.142577
Spine  67.3811 -5.58461 8.28769
Spine1  11.489 1.59849 -5.98825
HEad  -23.7051 -5.30116 1.55198
LeftShoulder1  3.69305 -20.0584 -8.12736
LeftArm  -109.307 -69.7047 59.4323
LeftForeArm  9.27959 -9.97459 -0.288981
LeftHand  -0.25398 0.0180481 5.50724
RightShoulder  2.05104 15.0788 2.97981
RightArm  -75.2019 52.9384 -30.1932
RightForeArm  -33.1287 5.00746 1.57421
RightHand  -5.29227 15.3244 -29.4614
LeftUpLeg  -72.3821 26.19 -27.9646
LeftLeg  30.2789 -5.84509 -3.33345
LeftFoot  -2.92185 -0.39382 5.58541
LeftToes  1.06247e-005 4.65855e-005 -8.18504e-006
